<?xml version="1.0" encoding="UTF-8" standalone="no"?>
<!DOCTYPE svg PUBLIC "-//W3C//DTD SVG 1.1//EN" "http://www.w3.org/Graphics/SVG/1.1/DTD/svg11.dtd">
<svg width="100%" height="100%" viewBox="0 0 900 300" version="1.1" xmlns="http://www.w3.org/2000/svg" xmlns:xlink="http://www.w3.org/1999/xlink" xml:space="preserve" xmlns:serif="http://www.serif.com/" style="fill-rule:evenodd;clip-rule:evenodd;stroke-linejoin:round;stroke-miterlimit:2;">
    <g transform="matrix(1,0,0,1,-0.500703,0)">
        <g id="banner" transform="matrix(1,0,0,1,0.500703,0)">
            <rect x="0" y="0" width="900" height="300" style="fill:none;"/>
            <clipPath id="_clip1">
                <rect x="0" y="0" width="900" height="300"/>
            </clipPath>
            <g clip-path="url(#_clip1)">
                <g transform="matrix(1,0,0,1,0,-170)">
                    <g transform="matrix(1.30009,0,0,1.63229,-270.084,-19.688)">
                        <path d="M900,121.111C900,118.406 897.243,116.21 893.847,116.21L213.895,116.21C210.499,116.21 207.742,118.406 207.742,121.111L207.742,295.099C207.742,297.804 210.499,300 213.895,300L893.847,300C897.243,300 900,297.804 900,295.099L900,121.111Z" style="fill:rgb(81,43,212);"/>
                        <clipPath id="_clip2">
                            <path d="M900,121.111C900,118.406 897.243,116.21 893.847,116.21L213.895,116.21C210.499,116.21 207.742,118.406 207.742,121.111L207.742,295.099C207.742,297.804 210.499,300 213.895,300L893.847,300C897.243,300 900,297.804 900,295.099L900,121.111Z"/>
                        </clipPath>
                        <g clip-path="url(#_clip2)">
                            <g transform="matrix(-1.46763,1.32135e-16,4.97697e-16,-1.16894,2976.8,575.485)">
                                <path d="M1797.48,235.509C1798.72,235.509 1799.87,236.114 1800.58,237.128C1801.28,238.142 1801.45,239.437 1801.02,240.595C1797.59,249.399 1792.16,257.209 1785.29,263.447L1798.87,286.966C1818.84,281.699 1841.01,286.89 1856.66,302.538C1880.08,325.954 1880.08,363.975 1856.66,387.391C1833.25,410.807 1795.22,410.807 1771.81,387.391C1748.84,364.418 1748.4,327.386 1770.51,303.882L1755.6,278.065C1752.16,278.679 1748.62,279 1745,279C1711.88,279 1685,252.115 1685,219C1685,185.885 1711.88,159 1745,159C1770.5,159 1792.31,174.945 1800.99,197.402C1801.42,198.554 1801.26,199.845 1800.56,200.856C1799.86,201.867 1798.7,202.47 1797.48,202.47C1789.77,202.491 1775.72,202.491 1770.66,202.491C1769.49,202.49 1768.4,201.955 1767.68,201.039C1762.39,194.346 1754.19,190.054 1745,190.054C1729.02,190.054 1716.05,203.024 1716.05,219C1716.05,234.976 1729.02,247.946 1745,247.946C1754.19,247.946 1762.39,243.654 1767.69,236.966C1768.4,236.053 1769.5,235.52 1770.66,235.52C1775.72,235.509 1789.78,235.509 1797.48,235.509ZM1841.87,202.491C1840.63,202.491 1839.47,201.884 1838.77,200.868C1838.06,199.851 1837.9,198.553 1838.34,197.395C1847.03,174.945 1868.84,159 1894.34,159C1927.46,159 1954.34,185.885 1954.34,219C1954.34,252.115 1927.46,279 1894.34,279C1868.84,279 1847.03,263.055 1838.36,240.598C1837.92,239.446 1838.08,238.155 1838.79,237.144C1839.49,236.133 1840.64,235.53 1841.87,235.53C1849.57,235.509 1863.62,235.509 1868.69,235.509C1869.85,235.51 1870.95,236.045 1871.66,236.961C1876.96,243.654 1885.15,247.946 1894.34,247.946C1910.32,247.946 1923.29,234.976 1923.29,219C1923.29,203.024 1910.32,190.054 1894.34,190.054C1885.15,190.054 1876.96,194.346 1871.65,201.034C1870.94,201.947 1869.85,202.48 1868.69,202.48C1863.62,202.491 1849.57,202.491 1841.87,202.491ZM1834.7,324.496C1823.41,313.2 1805.06,313.2 1793.77,324.496C1782.47,335.793 1782.47,354.136 1793.77,365.432C1805.06,376.729 1823.41,376.729 1834.7,365.432C1846,354.136 1846,335.793 1834.7,324.496Z" style="fill:rgb(45,20,130);"/>
                            </g>
                            <g transform="matrix(1.46763,0,0,1.16894,-1867.09,-173.366)">
                                <path d="M1797.48,235.509C1798.72,235.509 1799.87,236.114 1800.58,237.128C1801.28,238.142 1801.45,239.437 1801.02,240.595C1797.59,249.399 1792.16,257.209 1785.29,263.447L1798.87,286.966C1818.84,281.699 1841.01,286.89 1856.66,302.538C1880.08,325.954 1880.08,363.975 1856.66,387.391C1833.25,410.807 1795.22,410.807 1771.81,387.391C1748.84,364.418 1748.4,327.386 1770.51,303.882L1755.6,278.065C1752.16,278.679 1748.62,279 1745,279C1711.88,279 1685,252.115 1685,219C1685,185.885 1711.88,159 1745,159C1770.5,159 1792.31,174.945 1800.99,197.402C1801.42,198.554 1801.26,199.845 1800.56,200.856C1799.86,201.867 1798.7,202.47 1797.48,202.47C1789.77,202.491 1775.72,202.491 1770.66,202.491C1769.49,202.49 1768.4,201.955 1767.68,201.039C1762.39,194.346 1754.19,190.054 1745,190.054C1729.02,190.054 1716.05,203.024 1716.05,219C1716.05,234.976 1729.02,247.946 1745,247.946C1754.19,247.946 1762.39,243.654 1767.69,236.966C1768.4,236.053 1769.5,235.52 1770.66,235.52C1775.72,235.509 1789.78,235.509 1797.48,235.509ZM1841.87,202.491C1840.63,202.491 1839.47,201.884 1838.77,200.868C1838.06,199.851 1837.9,198.553 1838.34,197.395C1847.03,174.945 1868.84,159 1894.34,159C1927.46,159 1954.34,185.885 1954.34,219C1954.34,252.115 1927.46,279 1894.34,279C1868.84,279 1847.03,263.055 1838.36,240.598C1837.92,239.446 1838.08,238.155 1838.79,237.144C1839.49,236.133 1840.64,235.53 1841.87,235.53C1849.57,235.509 1863.62,235.509 1868.69,235.509C1869.85,235.51 1870.95,236.045 1871.66,236.961C1876.96,243.654 1885.15,247.946 1894.34,247.946C1910.32,247.946 1923.29,234.976 1923.29,219C1923.29,203.024 1910.32,190.054 1894.34,190.054C1885.15,190.054 1876.96,194.346 1871.65,201.034C1870.94,201.947 1869.85,202.48 1868.69,202.48C1863.62,202.491 1849.57,202.491 1841.87,202.491ZM1834.7,324.496C1823.41,313.2 1805.06,313.2 1793.77,324.496C1782.47,335.793 1782.47,354.136 1793.77,365.432C1805.06,376.729 1823.41,376.729 1834.7,365.432C1846,354.136 1846,335.793 1834.7,324.496Z" style="fill:rgb(45,20,130);"/>
                            </g>
                        </g>
                    </g>
                    <g transform="matrix(0.146257,0,0,0.146257,231.317,301.45)">
                        <g transform="matrix(212.199,0,0,212.199,255,319)">
                            <path d="M0.481,-0.299L0.719,-0.7L0.882,-0.7L0.884,-0L0.702,-0L0.7,-0.364L0.696,-0.364L0.52,-0.069L0.432,-0.069L0.257,-0.354L0.253,-0.354L0.253,-0L0.07,-0L0.07,-0.7L0.233,-0.7L0.477,-0.299L0.481,-0.299Z" style="fill:white;fill-rule:nonzero;"/>
                        </g>
                        <g transform="matrix(212.199,0,0,212.199,451.709,319)">
                            <path d="M0.061,-0.542L0.251,-0.542L0.251,-0L0.061,-0L0.061,-0.542ZM0.04,-0.703C0.04,-0.732 0.051,-0.756 0.072,-0.775C0.093,-0.794 0.121,-0.804 0.156,-0.804C0.191,-0.804 0.219,-0.795 0.24,-0.777C0.261,-0.758 0.272,-0.735 0.272,-0.706C0.272,-0.676 0.261,-0.651 0.24,-0.632C0.219,-0.612 0.191,-0.602 0.156,-0.602C0.121,-0.602 0.093,-0.612 0.072,-0.631C0.051,-0.65 0.04,-0.674 0.04,-0.703Z" style="fill:white;fill-rule:nonzero;"/>
                        </g>
                        <g transform="matrix(212.199,0,0,212.199,512.397,319)">
                            <path d="M0.638,-0.31L0.638,-0L0.448,-0L0.448,-0.279C0.448,-0.353 0.418,-0.39 0.359,-0.39C0.326,-0.39 0.3,-0.379 0.281,-0.358C0.261,-0.337 0.251,-0.305 0.251,-0.262L0.251,-0L0.061,-0L0.061,-0.542L0.242,-0.542L0.242,-0.483C0.286,-0.528 0.343,-0.551 0.414,-0.551C0.448,-0.551 0.479,-0.546 0.506,-0.536C0.533,-0.526 0.557,-0.511 0.577,-0.491C0.596,-0.471 0.611,-0.446 0.622,-0.416C0.633,-0.385 0.638,-0.35 0.638,-0.31Z" style="fill:white;fill-rule:nonzero;"/>
                        </g>
                        <g transform="matrix(212.199,0,0,212.199,654.359,319)">
                            <path d="M0.061,-0.542L0.251,-0.542L0.251,-0L0.061,-0L0.061,-0.542ZM0.04,-0.703C0.04,-0.732 0.051,-0.756 0.072,-0.775C0.093,-0.794 0.121,-0.804 0.156,-0.804C0.191,-0.804 0.219,-0.795 0.24,-0.777C0.261,-0.758 0.272,-0.735 0.272,-0.706C0.272,-0.676 0.261,-0.651 0.24,-0.632C0.219,-0.612 0.191,-0.602 0.156,-0.602C0.121,-0.602 0.093,-0.612 0.072,-0.631C0.051,-0.65 0.04,-0.674 0.04,-0.703Z" style="fill:white;fill-rule:nonzero;"/>
                        </g>
                        <g transform="matrix(212.199,0,0,212.199,715.048,319)">
                            <path d="M0.986,-0.31L0.986,-0L0.796,-0L0.796,-0.279C0.796,-0.317 0.789,-0.345 0.775,-0.363C0.76,-0.381 0.74,-0.39 0.714,-0.39C0.685,-0.39 0.662,-0.38 0.645,-0.36C0.628,-0.34 0.619,-0.31 0.619,-0.269L0.619,-0L0.429,-0L0.429,-0.279C0.429,-0.353 0.402,-0.39 0.347,-0.39C0.317,-0.39 0.294,-0.38 0.277,-0.36C0.26,-0.34 0.251,-0.31 0.251,-0.269L0.251,-0L0.061,-0L0.061,-0.542L0.242,-0.542L0.242,-0.485C0.262,-0.507 0.286,-0.524 0.314,-0.535C0.341,-0.546 0.371,-0.551 0.404,-0.551C0.442,-0.551 0.476,-0.544 0.506,-0.53C0.536,-0.516 0.56,-0.495 0.579,-0.466C0.6,-0.494 0.627,-0.515 0.66,-0.53C0.693,-0.544 0.728,-0.551 0.767,-0.551C0.834,-0.551 0.887,-0.531 0.927,-0.491C0.966,-0.451 0.986,-0.391 0.986,-0.31Z" style="fill:white;fill-rule:nonzero;"/>
                        </g>
                        <g transform="matrix(212.199,0,0,212.199,932.764,319)">
                            <path d="M0.634,-0.542L0.634,-0L0.453,-0L0.453,-0.054C0.418,-0.012 0.364,0.009 0.293,0.009C0.244,0.009 0.199,-0.003 0.159,-0.026C0.118,-0.048 0.086,-0.081 0.063,-0.124C0.039,-0.167 0.027,-0.216 0.027,-0.272C0.027,-0.328 0.039,-0.377 0.063,-0.42C0.086,-0.462 0.118,-0.494 0.159,-0.517C0.199,-0.54 0.244,-0.551 0.293,-0.551C0.357,-0.551 0.407,-0.532 0.444,-0.495L0.444,-0.542L0.634,-0.542ZM0.333,-0.142C0.366,-0.142 0.394,-0.154 0.415,-0.177C0.436,-0.2 0.447,-0.231 0.447,-0.272C0.447,-0.312 0.436,-0.343 0.415,-0.366C0.394,-0.389 0.366,-0.4 0.333,-0.4C0.3,-0.4 0.272,-0.389 0.251,-0.366C0.23,-0.343 0.219,-0.312 0.219,-0.272C0.219,-0.231 0.23,-0.2 0.251,-0.177C0.272,-0.154 0.3,-0.142 0.333,-0.142Z" style="fill:white;fill-rule:nonzero;"/>
                        </g>
                        <g transform="matrix(212.199,0,0,212.199,1074.51,319)">
                            <rect x="0.061" y="-0.742" width="0.19" height="0.742" style="fill:white;fill-rule:nonzero;"/>
                        </g>
                        <g transform="matrix(212.199,0,0,212.199,1135.2,319)">
                            <path d="M0.539,-0.136L0.243,-0.136L0.188,-0L-0.014,-0L0.295,-0.7L0.49,-0.7L0.8,-0L0.594,-0L0.539,-0.136ZM0.481,-0.282L0.393,-0.501L0.389,-0.501L0.301,-0.282L0.481,-0.282Z" style="fill:white;fill-rule:nonzero;"/>
                        </g>
                        <g transform="matrix(212.199,0,0,212.199,1296.26,319)">
                            <path d="M0.701,-0.441C0.701,-0.402 0.694,-0.366 0.679,-0.334C0.664,-0.302 0.644,-0.275 0.617,-0.253C0.59,-0.23 0.557,-0.213 0.519,-0.201C0.48,-0.189 0.437,-0.183 0.39,-0.183L0.268,-0.183L0.268,-0L0.07,-0L0.07,-0.7L0.39,-0.7C0.437,-0.7 0.48,-0.694 0.519,-0.682C0.557,-0.67 0.59,-0.653 0.617,-0.63C0.644,-0.607 0.664,-0.58 0.679,-0.549C0.694,-0.517 0.701,-0.481 0.701,-0.441ZM0.501,-0.441C0.501,-0.474 0.491,-0.499 0.47,-0.517C0.449,-0.535 0.419,-0.544 0.378,-0.544L0.268,-0.544L0.268,-0.339L0.378,-0.339C0.419,-0.339 0.449,-0.348 0.47,-0.366C0.491,-0.383 0.501,-0.408 0.501,-0.441Z" style="fill:white;fill-rule:nonzero;"/>
                        </g>
                        <g transform="matrix(212.199,0,0,212.199,1444.8,319)">
                            <rect x="0.07" y="-0.7" width="0.198" height="0.7" style="fill:white;fill-rule:nonzero;"/>
                        </g>
                        <g transform="matrix(212.199,0,0,212.199,1558.96,319)">
                            <path d="M0.224,-0.591L0.224,-0.378L0.562,-0.378L0.562,-0.268L0.224,-0.268L0.224,-0L0.094,-0L0.094,-0.7L0.605,-0.7L0.605,-0.591L0.224,-0.591Z" style="fill:white;fill-rule:nonzero;"/>
                        </g>
                        <g transform="matrix(212.199,0,0,212.199,1678.22,319)">
                            <path d="M0.205,-0.462C0.224,-0.487 0.248,-0.506 0.277,-0.52C0.306,-0.533 0.344,-0.54 0.391,-0.54L0.391,-0.421C0.38,-0.423 0.37,-0.424 0.362,-0.424C0.313,-0.424 0.275,-0.41 0.248,-0.382C0.221,-0.354 0.207,-0.313 0.207,-0.259L0.207,-0L0.082,-0L0.082,-0.534L0.201,-0.534L0.201,-0.462L0.205,-0.462Z" style="fill:white;fill-rule:nonzero;"/>
                        </g>
                        <g transform="matrix(212.199,0,0,212.199,1751.43,319)">
                            <path d="M0.604,-0.534L0.604,-0L0.485,-0L0.485,-0.069C0.464,-0.044 0.439,-0.025 0.409,-0.012C0.378,0.001 0.345,0.007 0.308,0.007C0.256,0.007 0.21,-0.004 0.169,-0.027C0.128,-0.05 0.095,-0.082 0.073,-0.123C0.049,-0.164 0.038,-0.212 0.038,-0.267C0.038,-0.322 0.049,-0.37 0.073,-0.411C0.095,-0.452 0.128,-0.483 0.169,-0.506C0.21,-0.529 0.256,-0.54 0.308,-0.54C0.343,-0.54 0.375,-0.534 0.404,-0.522C0.433,-0.51 0.458,-0.492 0.479,-0.469L0.479,-0.534L0.604,-0.534ZM0.322,-0.1C0.368,-0.1 0.406,-0.115 0.436,-0.146C0.466,-0.177 0.481,-0.217 0.481,-0.267C0.481,-0.317 0.466,-0.357 0.436,-0.388C0.406,-0.419 0.368,-0.434 0.322,-0.434C0.276,-0.434 0.238,-0.419 0.209,-0.388C0.179,-0.357 0.164,-0.317 0.164,-0.267C0.164,-0.217 0.179,-0.177 0.209,-0.146C0.238,-0.115 0.276,-0.1 0.322,-0.1Z" style="fill:white;fill-rule:nonzero;"/>
                        </g>
                        <g transform="matrix(212.199,0,0,212.199,1883.2,319)">
                            <path d="M0.975,-0.306L0.975,-0L0.85,-0L0.85,-0.29C0.85,-0.337 0.84,-0.372 0.819,-0.396C0.798,-0.419 0.769,-0.431 0.73,-0.431C0.688,-0.431 0.654,-0.417 0.629,-0.39C0.604,-0.363 0.591,-0.323 0.591,-0.271L0.591,-0L0.466,-0L0.466,-0.29C0.466,-0.337 0.456,-0.372 0.435,-0.396C0.414,-0.419 0.385,-0.431 0.346,-0.431C0.303,-0.431 0.27,-0.417 0.245,-0.39C0.22,-0.363 0.207,-0.323 0.207,-0.271L0.207,-0L0.082,-0L0.082,-0.534L0.201,-0.534L0.201,-0.466C0.221,-0.49 0.246,-0.508 0.276,-0.521C0.306,-0.534 0.339,-0.54 0.376,-0.54C0.416,-0.54 0.452,-0.533 0.483,-0.518C0.514,-0.503 0.538,-0.481 0.556,-0.451C0.578,-0.479 0.606,-0.501 0.641,-0.517C0.676,-0.532 0.714,-0.54 0.756,-0.54C0.823,-0.54 0.877,-0.521 0.916,-0.482C0.955,-0.442 0.975,-0.384 0.975,-0.306Z" style="fill:white;fill-rule:nonzero;"/>
                        </g>
                        <g transform="matrix(212.199,0,0,212.199,2093.92,319)">
                            <path d="M0.582,-0.227L0.163,-0.227C0.17,-0.187 0.19,-0.156 0.221,-0.133C0.252,-0.11 0.29,-0.099 0.336,-0.099C0.395,-0.099 0.443,-0.118 0.481,-0.157L0.548,-0.08C0.524,-0.051 0.494,-0.03 0.457,-0.015C0.42,-0 0.379,0.007 0.333,0.007C0.289,0.007 0.249,0 0.213,-0.014C0.176,-0.027 0.145,-0.046 0.119,-0.071C0.093,-0.095 0.073,-0.124 0.059,-0.157C0.045,-0.19 0.038,-0.227 0.038,-0.267C0.037,-0.306 0.044,-0.342 0.058,-0.376C0.072,-0.409 0.091,-0.438 0.116,-0.463C0.141,-0.488 0.17,-0.507 0.204,-0.521C0.238,-0.534 0.275,-0.541 0.314,-0.54C0.353,-0.54 0.389,-0.533 0.423,-0.52C0.456,-0.507 0.484,-0.488 0.508,-0.464C0.532,-0.44 0.551,-0.411 0.564,-0.377C0.577,-0.343 0.584,-0.305 0.584,-0.264C0.584,-0.259 0.584,-0.254 0.584,-0.248C0.583,-0.242 0.583,-0.235 0.582,-0.227ZM0.162,-0.31L0.465,-0.31C0.46,-0.349 0.443,-0.38 0.416,-0.404C0.389,-0.428 0.355,-0.44 0.314,-0.44C0.274,-0.44 0.24,-0.428 0.213,-0.405C0.185,-0.382 0.168,-0.35 0.162,-0.31Z" style="fill:white;fill-rule:nonzero;"/>
                        </g>
                        <g transform="matrix(212.199,0,0,212.199,2209.99,319)">
                            <path d="M0.458,-0.363L0.32,-0L0.2,-0L0.004,-0.534L0.122,-0.534L0.261,-0.146L0.265,-0.146L0.41,-0.534L0.515,-0.534L0.657,-0.144L0.661,-0.144L0.804,-0.534L0.915,-0.534L0.718,-0L0.598,-0L0.462,-0.363L0.458,-0.363Z" style="fill:white;fill-rule:nonzero;"/>
                        </g>
                        <g transform="matrix(212.199,0,0,212.199,2388.02,319)">
                            <path d="M0.038,-0.267C0.038,-0.307 0.045,-0.344 0.06,-0.377C0.074,-0.41 0.094,-0.439 0.119,-0.463C0.143,-0.487 0.173,-0.506 0.208,-0.52C0.243,-0.533 0.281,-0.54 0.322,-0.54C0.363,-0.54 0.401,-0.533 0.436,-0.52C0.471,-0.506 0.501,-0.487 0.526,-0.463C0.551,-0.439 0.571,-0.41 0.586,-0.377C0.6,-0.344 0.607,-0.307 0.607,-0.267C0.607,-0.227 0.6,-0.19 0.586,-0.157C0.571,-0.124 0.551,-0.095 0.526,-0.071C0.501,-0.046 0.471,-0.027 0.436,-0.014C0.401,0 0.363,0.007 0.322,0.007C0.282,0.008 0.245,0.001 0.21,-0.013C0.174,-0.027 0.144,-0.046 0.119,-0.071C0.093,-0.095 0.073,-0.124 0.059,-0.158C0.044,-0.191 0.037,-0.228 0.038,-0.267ZM0.481,-0.267C0.481,-0.292 0.477,-0.314 0.469,-0.335C0.461,-0.356 0.45,-0.373 0.436,-0.388C0.422,-0.403 0.405,-0.414 0.386,-0.422C0.366,-0.43 0.345,-0.434 0.322,-0.434C0.299,-0.434 0.277,-0.43 0.258,-0.422C0.239,-0.414 0.222,-0.403 0.208,-0.388C0.194,-0.373 0.183,-0.356 0.176,-0.335C0.168,-0.314 0.164,-0.292 0.164,-0.267C0.164,-0.242 0.168,-0.219 0.176,-0.199C0.183,-0.178 0.194,-0.161 0.208,-0.146C0.222,-0.131 0.239,-0.12 0.258,-0.112C0.277,-0.104 0.299,-0.1 0.322,-0.1C0.345,-0.1 0.366,-0.104 0.386,-0.112C0.405,-0.12 0.422,-0.131 0.436,-0.146C0.45,-0.161 0.461,-0.178 0.469,-0.199C0.477,-0.219 0.481,-0.242 0.481,-0.267Z" style="fill:white;fill-rule:nonzero;"/>
                        </g>
                        <g transform="matrix(212.199,0,0,212.199,2511.1,319)">
                            <path d="M0.205,-0.462C0.224,-0.487 0.248,-0.506 0.277,-0.52C0.306,-0.533 0.344,-0.54 0.391,-0.54L0.391,-0.421C0.38,-0.423 0.37,-0.424 0.362,-0.424C0.313,-0.424 0.275,-0.41 0.248,-0.382C0.221,-0.354 0.207,-0.313 0.207,-0.259L0.207,-0L0.082,-0L0.082,-0.534L0.201,-0.534L0.201,-0.462L0.205,-0.462Z" style="fill:white;fill-rule:nonzero;"/>
                        </g>
                        <g transform="matrix(212.199,0,0,212.199,2585.37,319)">
                            <path d="M0.3,-0.229L0.207,-0.141L0.207,-0L0.082,-0L0.082,-0.742L0.207,-0.742L0.207,-0.294L0.466,-0.534L0.616,-0.534L0.393,-0.31L0.637,-0L0.485,-0L0.3,-0.229Z" style="fill:white;fill-rule:nonzero;"/>
                        </g>
                    </g>
                    <g transform="matrix(0.0636012,0,0,0.0636012,336.063,350.549)">
                        <g transform="matrix(212.199,0,0,212.199,255,319)">
                            <path d="M0.375,-0.368L0.686,-0.368L0.686,-0.081C0.651,-0.052 0.611,-0.03 0.565,-0.015C0.519,0 0.471,0.008 0.421,0.008C0.368,0.009 0.319,0 0.274,-0.018C0.228,-0.036 0.188,-0.061 0.155,-0.094C0.121,-0.126 0.095,-0.164 0.076,-0.208C0.056,-0.252 0.047,-0.299 0.048,-0.35C0.047,-0.401 0.056,-0.448 0.076,-0.492C0.095,-0.536 0.121,-0.574 0.155,-0.607C0.188,-0.639 0.228,-0.664 0.274,-0.682C0.32,-0.7 0.37,-0.709 0.423,-0.708C0.48,-0.708 0.531,-0.699 0.576,-0.681C0.621,-0.663 0.66,-0.636 0.692,-0.6L0.63,-0.538C0.574,-0.592 0.506,-0.619 0.427,-0.619C0.387,-0.619 0.35,-0.612 0.316,-0.599C0.281,-0.586 0.252,-0.567 0.227,-0.543C0.202,-0.519 0.183,-0.491 0.169,-0.458C0.155,-0.425 0.148,-0.389 0.148,-0.35C0.148,-0.312 0.155,-0.276 0.169,-0.244C0.183,-0.211 0.203,-0.182 0.228,-0.158C0.253,-0.134 0.282,-0.115 0.316,-0.102C0.349,-0.088 0.386,-0.081 0.426,-0.081C0.488,-0.081 0.543,-0.096 0.59,-0.126L0.59,-0.283L0.375,-0.283L0.375,-0.368Z" style="fill:white;fill-rule:nonzero;"/>
                        </g>
                        <g transform="matrix(212.199,0,0,212.199,418.818,319)">
                            <path d="M0.568,-0.233L0.138,-0.233C0.141,-0.21 0.147,-0.189 0.158,-0.17C0.169,-0.151 0.183,-0.134 0.2,-0.121C0.217,-0.107 0.236,-0.096 0.258,-0.089C0.28,-0.082 0.304,-0.078 0.33,-0.078C0.393,-0.078 0.444,-0.099 0.483,-0.142L0.536,-0.08C0.512,-0.052 0.482,-0.031 0.447,-0.016C0.411,-0.001 0.371,0.006 0.327,0.006C0.284,0.006 0.246,-0.001 0.211,-0.014C0.175,-0.027 0.146,-0.046 0.121,-0.07C0.095,-0.094 0.076,-0.123 0.063,-0.156C0.049,-0.189 0.042,-0.226 0.042,-0.265C0.042,-0.304 0.049,-0.339 0.062,-0.373C0.075,-0.405 0.094,-0.434 0.118,-0.458C0.141,-0.482 0.169,-0.501 0.202,-0.515C0.235,-0.528 0.27,-0.535 0.308,-0.535C0.346,-0.535 0.381,-0.528 0.414,-0.515C0.446,-0.502 0.474,-0.483 0.497,-0.459C0.52,-0.435 0.538,-0.406 0.551,-0.373C0.564,-0.339 0.57,-0.302 0.57,-0.262C0.57,-0.259 0.57,-0.255 0.57,-0.25C0.569,-0.245 0.569,-0.239 0.568,-0.233ZM0.138,-0.302L0.478,-0.302C0.475,-0.324 0.469,-0.344 0.46,-0.363C0.451,-0.382 0.439,-0.398 0.424,-0.412C0.409,-0.425 0.391,-0.436 0.372,-0.443C0.352,-0.45 0.331,-0.454 0.308,-0.454C0.285,-0.454 0.263,-0.45 0.244,-0.443C0.225,-0.436 0.208,-0.425 0.193,-0.412C0.178,-0.399 0.165,-0.383 0.156,-0.364C0.147,-0.345 0.141,-0.325 0.138,-0.302Z" style="fill:white;fill-rule:nonzero;"/>
                        </g>
                        <g transform="matrix(212.199,0,0,212.199,548.683,319)">
                            <path d="M0.594,-0.305L0.594,-0L0.498,-0L0.498,-0.294C0.498,-0.346 0.486,-0.385 0.461,-0.411C0.436,-0.436 0.401,-0.449 0.355,-0.449C0.303,-0.449 0.262,-0.434 0.232,-0.404C0.202,-0.373 0.187,-0.33 0.187,-0.273L0.187,-0L0.091,-0L0.091,-0.53L0.183,-0.53L0.183,-0.45C0.202,-0.478 0.229,-0.499 0.262,-0.514C0.295,-0.528 0.332,-0.535 0.374,-0.535C0.442,-0.535 0.496,-0.516 0.535,-0.477C0.574,-0.438 0.594,-0.381 0.594,-0.305Z" style="fill:white;fill-rule:nonzero;"/>
                        </g>
                        <g transform="matrix(212.199,0,0,212.199,693.828,319)">
                            <path d="M0.568,-0.233L0.138,-0.233C0.141,-0.21 0.147,-0.189 0.158,-0.17C0.169,-0.151 0.183,-0.134 0.2,-0.121C0.217,-0.107 0.236,-0.096 0.258,-0.089C0.28,-0.082 0.304,-0.078 0.33,-0.078C0.393,-0.078 0.444,-0.099 0.483,-0.142L0.536,-0.08C0.512,-0.052 0.482,-0.031 0.447,-0.016C0.411,-0.001 0.371,0.006 0.327,0.006C0.284,0.006 0.246,-0.001 0.211,-0.014C0.175,-0.027 0.146,-0.046 0.121,-0.07C0.095,-0.094 0.076,-0.123 0.063,-0.156C0.049,-0.189 0.042,-0.226 0.042,-0.265C0.042,-0.304 0.049,-0.339 0.062,-0.373C0.075,-0.405 0.094,-0.434 0.118,-0.458C0.141,-0.482 0.169,-0.501 0.202,-0.515C0.235,-0.528 0.27,-0.535 0.308,-0.535C0.346,-0.535 0.381,-0.528 0.414,-0.515C0.446,-0.502 0.474,-0.483 0.497,-0.459C0.52,-0.435 0.538,-0.406 0.551,-0.373C0.564,-0.339 0.57,-0.302 0.57,-0.262C0.57,-0.259 0.57,-0.255 0.57,-0.25C0.569,-0.245 0.569,-0.239 0.568,-0.233ZM0.138,-0.302L0.478,-0.302C0.475,-0.324 0.469,-0.344 0.46,-0.363C0.451,-0.382 0.439,-0.398 0.424,-0.412C0.409,-0.425 0.391,-0.436 0.372,-0.443C0.352,-0.45 0.331,-0.454 0.308,-0.454C0.285,-0.454 0.263,-0.45 0.244,-0.443C0.225,-0.436 0.208,-0.425 0.193,-0.412C0.178,-0.399 0.165,-0.383 0.156,-0.364C0.147,-0.345 0.141,-0.325 0.138,-0.302Z" style="fill:white;fill-rule:nonzero;"/>
                        </g>
                        <g transform="matrix(212.199,0,0,212.199,823.693,319)">
                            <path d="M0.187,-0.448C0.204,-0.476 0.229,-0.498 0.261,-0.513C0.293,-0.528 0.331,-0.535 0.376,-0.535L0.376,-0.442C0.373,-0.443 0.37,-0.443 0.366,-0.443L0.354,-0.443C0.302,-0.443 0.261,-0.428 0.232,-0.397C0.202,-0.366 0.187,-0.322 0.187,-0.264L0.187,-0L0.091,-0L0.091,-0.53L0.183,-0.53L0.183,-0.448L0.187,-0.448Z" style="fill:white;fill-rule:nonzero;"/>
                        </g>
                        <g transform="matrix(212.199,0,0,212.199,908.149,319)">
                            <path d="M0.591,-0.53L0.591,-0L0.499,-0L0.499,-0.084C0.478,-0.055 0.451,-0.032 0.418,-0.017C0.385,-0.002 0.349,0.006 0.31,0.006C0.259,0.006 0.213,-0.005 0.172,-0.028C0.131,-0.051 0.099,-0.083 0.077,-0.124C0.054,-0.165 0.042,-0.212 0.042,-0.265C0.042,-0.318 0.054,-0.365 0.077,-0.406C0.099,-0.447 0.131,-0.478 0.172,-0.501C0.213,-0.524 0.259,-0.535 0.31,-0.535C0.348,-0.535 0.383,-0.528 0.415,-0.514C0.447,-0.499 0.474,-0.478 0.495,-0.45L0.495,-0.53L0.591,-0.53ZM0.318,-0.078C0.351,-0.078 0.382,-0.086 0.409,-0.102C0.436,-0.117 0.458,-0.139 0.473,-0.168C0.488,-0.196 0.496,-0.228 0.496,-0.265C0.496,-0.302 0.488,-0.334 0.473,-0.363C0.458,-0.391 0.436,-0.413 0.409,-0.428C0.382,-0.443 0.351,-0.451 0.318,-0.451C0.284,-0.451 0.254,-0.443 0.227,-0.428C0.2,-0.413 0.178,-0.391 0.163,-0.363C0.147,-0.334 0.139,-0.302 0.139,-0.265C0.139,-0.228 0.147,-0.196 0.163,-0.168C0.178,-0.139 0.2,-0.117 0.227,-0.102C0.254,-0.086 0.284,-0.078 0.318,-0.078Z" style="fill:white;fill-rule:nonzero;"/>
                        </g>
                        <g transform="matrix(212.199,0,0,212.199,1052.87,319)">
                            <path d="M0.389,-0.031C0.375,-0.019 0.358,-0.01 0.337,-0.004C0.316,0.003 0.295,0.006 0.273,0.006C0.219,0.006 0.178,-0.008 0.149,-0.037C0.119,-0.065 0.105,-0.106 0.105,-0.16L0.105,-0.451L0.015,-0.451L0.015,-0.53L0.105,-0.53L0.105,-0.646L0.201,-0.646L0.201,-0.53L0.353,-0.53L0.353,-0.451L0.201,-0.451L0.201,-0.164C0.201,-0.135 0.208,-0.113 0.223,-0.098C0.237,-0.083 0.257,-0.075 0.284,-0.075C0.313,-0.075 0.338,-0.083 0.359,-0.1L0.389,-0.031Z" style="fill:white;fill-rule:nonzero;"/>
                        </g>
                        <g transform="matrix(212.199,0,0,212.199,1136.9,319)">
                            <path d="M0.568,-0.233L0.138,-0.233C0.141,-0.21 0.147,-0.189 0.158,-0.17C0.169,-0.151 0.183,-0.134 0.2,-0.121C0.217,-0.107 0.236,-0.096 0.258,-0.089C0.28,-0.082 0.304,-0.078 0.33,-0.078C0.393,-0.078 0.444,-0.099 0.483,-0.142L0.536,-0.08C0.512,-0.052 0.482,-0.031 0.447,-0.016C0.411,-0.001 0.371,0.006 0.327,0.006C0.284,0.006 0.246,-0.001 0.211,-0.014C0.175,-0.027 0.146,-0.046 0.121,-0.07C0.095,-0.094 0.076,-0.123 0.063,-0.156C0.049,-0.189 0.042,-0.226 0.042,-0.265C0.042,-0.304 0.049,-0.339 0.062,-0.373C0.075,-0.405 0.094,-0.434 0.118,-0.458C0.141,-0.482 0.169,-0.501 0.202,-0.515C0.235,-0.528 0.27,-0.535 0.308,-0.535C0.346,-0.535 0.381,-0.528 0.414,-0.515C0.446,-0.502 0.474,-0.483 0.497,-0.459C0.52,-0.435 0.538,-0.406 0.551,-0.373C0.564,-0.339 0.57,-0.302 0.57,-0.262C0.57,-0.259 0.57,-0.255 0.57,-0.25C0.569,-0.245 0.569,-0.239 0.568,-0.233ZM0.138,-0.302L0.478,-0.302C0.475,-0.324 0.469,-0.344 0.46,-0.363C0.451,-0.382 0.439,-0.398 0.424,-0.412C0.409,-0.425 0.391,-0.436 0.372,-0.443C0.352,-0.45 0.331,-0.454 0.308,-0.454C0.285,-0.454 0.263,-0.45 0.244,-0.443C0.225,-0.436 0.208,-0.425 0.193,-0.412C0.178,-0.399 0.165,-0.383 0.156,-0.364C0.147,-0.345 0.141,-0.325 0.138,-0.302Z" style="fill:white;fill-rule:nonzero;"/>
                        </g>
                        <g transform="matrix(212.199,0,0,212.199,1323.85,319)">
                            <path d="M0.039,-0.35C0.038,-0.402 0.048,-0.45 0.067,-0.495C0.086,-0.539 0.113,-0.577 0.148,-0.61C0.182,-0.642 0.222,-0.667 0.269,-0.686C0.316,-0.704 0.366,-0.713 0.419,-0.712C0.48,-0.712 0.534,-0.701 0.583,-0.68C0.632,-0.659 0.673,-0.628 0.707,-0.588L0.603,-0.492C0.556,-0.547 0.498,-0.574 0.427,-0.574C0.394,-0.574 0.364,-0.569 0.337,-0.558C0.31,-0.547 0.286,-0.531 0.266,-0.511C0.246,-0.491 0.231,-0.467 0.22,-0.44C0.209,-0.413 0.203,-0.383 0.203,-0.35C0.203,-0.317 0.209,-0.287 0.22,-0.26C0.231,-0.233 0.246,-0.209 0.266,-0.189C0.286,-0.169 0.31,-0.154 0.337,-0.143C0.364,-0.132 0.394,-0.126 0.427,-0.126C0.497,-0.126 0.556,-0.154 0.603,-0.209L0.707,-0.113C0.673,-0.072 0.632,-0.041 0.583,-0.02C0.534,0.001 0.479,0.012 0.418,0.012C0.365,0.013 0.315,0.004 0.269,-0.014C0.222,-0.032 0.182,-0.057 0.148,-0.09C0.113,-0.123 0.086,-0.161 0.067,-0.206C0.048,-0.25 0.038,-0.298 0.039,-0.35Z" style="fill:white;fill-rule:nonzero;"/>
                        </g>
                        <g transform="matrix(212.199,0,0,212.199,1479.39,319)">
                            <path d="M0.529,-0L0.394,-0.195L0.245,-0.195L0.245,-0L0.083,-0L0.083,-0.7L0.386,-0.7C0.433,-0.7 0.475,-0.694 0.512,-0.682C0.549,-0.67 0.581,-0.653 0.608,-0.631C0.634,-0.609 0.654,-0.582 0.669,-0.551C0.683,-0.52 0.69,-0.485 0.69,-0.446C0.69,-0.394 0.678,-0.349 0.653,-0.312C0.627,-0.274 0.592,-0.245 0.546,-0.225L0.703,-0L0.529,-0ZM0.377,-0.568L0.245,-0.568L0.245,-0.324L0.377,-0.324C0.426,-0.324 0.463,-0.335 0.488,-0.356C0.513,-0.377 0.526,-0.407 0.526,-0.446C0.526,-0.486 0.513,-0.516 0.488,-0.537C0.463,-0.558 0.426,-0.568 0.377,-0.568Z" style="fill:white;fill-rule:nonzero;"/>
                        </g>
                        <g transform="matrix(212.199,0,0,212.199,1635.35,319)">
                            <path d="M0.077,-0.308L0.077,-0.7L0.239,-0.7L0.239,-0.314C0.239,-0.189 0.291,-0.126 0.395,-0.126C0.446,-0.126 0.484,-0.141 0.511,-0.172C0.538,-0.202 0.551,-0.249 0.551,-0.314L0.551,-0.7L0.711,-0.7L0.711,-0.308C0.711,-0.205 0.683,-0.126 0.628,-0.071C0.573,-0.016 0.495,0.012 0.394,0.012C0.293,0.012 0.215,-0.016 0.16,-0.071C0.105,-0.126 0.077,-0.205 0.077,-0.308Z" style="fill:white;fill-rule:nonzero;"/>
                        </g>
                        <g transform="matrix(212.199,0,0,212.199,1802.57,319)">
                            <path d="M0.083,-0.7L0.401,-0.7C0.458,-0.7 0.511,-0.692 0.558,-0.675C0.605,-0.658 0.646,-0.635 0.68,-0.604C0.714,-0.573 0.74,-0.537 0.759,-0.494C0.778,-0.45 0.787,-0.403 0.787,-0.35C0.787,-0.297 0.778,-0.25 0.759,-0.207C0.74,-0.164 0.714,-0.127 0.68,-0.096C0.646,-0.065 0.605,-0.042 0.558,-0.025C0.511,-0.008 0.458,-0 0.401,-0L0.083,-0L0.083,-0.7ZM0.393,-0.133C0.428,-0.133 0.459,-0.138 0.488,-0.148C0.516,-0.158 0.54,-0.173 0.56,-0.192C0.58,-0.211 0.596,-0.233 0.607,-0.26C0.618,-0.287 0.623,-0.317 0.623,-0.35C0.623,-0.383 0.618,-0.413 0.607,-0.44C0.596,-0.467 0.58,-0.49 0.56,-0.509C0.54,-0.528 0.516,-0.542 0.488,-0.552C0.459,-0.562 0.428,-0.567 0.393,-0.567L0.245,-0.567L0.245,-0.133L0.393,-0.133Z" style="fill:white;fill-rule:nonzero;"/>
                        </g>
                        <g transform="matrix(212.199,0,0,212.199,2034.93,319)">
                            <path d="M0.551,-0.175L0.179,-0.175L0.102,-0L-0.001,-0L0.316,-0.7L0.415,-0.7L0.733,-0L0.628,-0L0.551,-0.175ZM0.516,-0.255L0.367,-0.593L0.363,-0.593L0.214,-0.255L0.516,-0.255Z" style="fill:white;fill-rule:nonzero;"/>
                        </g>
                        <g transform="matrix(212.199,0,0,212.199,2190.26,319)">
                            <path d="M0.67,-0.456C0.67,-0.418 0.663,-0.384 0.65,-0.354C0.637,-0.323 0.617,-0.298 0.592,-0.277C0.567,-0.256 0.536,-0.24 0.5,-0.229C0.464,-0.218 0.423,-0.212 0.378,-0.212L0.205,-0.212L0.205,-0L0.105,-0L0.105,-0.7L0.378,-0.7C0.423,-0.7 0.464,-0.694 0.5,-0.683C0.536,-0.672 0.567,-0.656 0.592,-0.635C0.617,-0.614 0.637,-0.588 0.65,-0.558C0.663,-0.528 0.67,-0.494 0.67,-0.456ZM0.57,-0.456C0.57,-0.507 0.554,-0.546 0.521,-0.573C0.488,-0.6 0.439,-0.613 0.375,-0.613L0.205,-0.613L0.205,-0.299L0.375,-0.299C0.439,-0.299 0.488,-0.313 0.521,-0.34C0.554,-0.367 0.57,-0.405 0.57,-0.456Z" style="fill:white;fill-rule:nonzero;"/>
                        </g>
                        <g transform="matrix(212.199,0,0,212.199,2341.34,319)">
                            <rect x="0.105" y="-0.7" width="0.1" height="0.7" style="fill:white;fill-rule:nonzero;"/>
                        </g>
                        <g transform="matrix(212.199,0,0,212.199,2407.12,319)">
                            <path d="M0.024,-0.056L0.064,-0.132C0.087,-0.115 0.116,-0.102 0.149,-0.092C0.182,-0.082 0.216,-0.077 0.25,-0.077C0.334,-0.077 0.376,-0.101 0.376,-0.149C0.375,-0.162 0.371,-0.172 0.366,-0.18C0.36,-0.187 0.352,-0.194 0.341,-0.199C0.33,-0.204 0.317,-0.208 0.301,-0.211C0.285,-0.214 0.266,-0.218 0.244,-0.222C0.223,-0.225 0.203,-0.229 0.186,-0.233C0.168,-0.236 0.152,-0.24 0.139,-0.245C0.112,-0.254 0.089,-0.268 0.07,-0.289C0.051,-0.31 0.041,-0.339 0.041,-0.376C0.041,-0.4 0.046,-0.422 0.057,-0.442C0.067,-0.461 0.082,-0.478 0.101,-0.492C0.12,-0.505 0.143,-0.516 0.171,-0.524C0.198,-0.531 0.228,-0.535 0.262,-0.535C0.298,-0.535 0.333,-0.531 0.369,-0.522C0.403,-0.513 0.432,-0.502 0.455,-0.487L0.414,-0.411C0.371,-0.439 0.32,-0.453 0.261,-0.453C0.22,-0.453 0.189,-0.446 0.168,-0.433C0.147,-0.42 0.136,-0.402 0.136,-0.38C0.137,-0.366 0.141,-0.355 0.147,-0.347C0.153,-0.338 0.162,-0.331 0.173,-0.326C0.184,-0.321 0.197,-0.316 0.214,-0.313C0.231,-0.309 0.25,-0.305 0.273,-0.301C0.316,-0.294 0.35,-0.286 0.376,-0.277C0.403,-0.269 0.425,-0.255 0.444,-0.235C0.463,-0.215 0.472,-0.187 0.472,-0.151C0.472,-0.103 0.452,-0.065 0.411,-0.037C0.37,-0.008 0.314,0.006 0.243,0.006C0.199,0.006 0.157,0 0.118,-0.012C0.078,-0.023 0.047,-0.038 0.024,-0.056Z" style="fill:white;fill-rule:nonzero;"/>
                        </g>
                        <g transform="matrix(212.199,0,0,212.199,2570.52,319)">
                            <path d="M0.091,-0.53L0.187,-0.53L0.187,-0L0.091,-0L0.091,-0.53ZM0.074,-0.694C0.074,-0.711 0.08,-0.726 0.093,-0.739C0.105,-0.751 0.12,-0.757 0.139,-0.757C0.158,-0.757 0.173,-0.751 0.186,-0.74C0.198,-0.728 0.204,-0.713 0.204,-0.696C0.204,-0.678 0.198,-0.663 0.186,-0.651C0.173,-0.638 0.158,-0.632 0.139,-0.632C0.12,-0.632 0.105,-0.638 0.093,-0.65C0.08,-0.662 0.074,-0.677 0.074,-0.694Z" style="fill:white;fill-rule:nonzero;"/>
                        </g>
                        <g transform="matrix(212.199,0,0,212.199,2629.72,319)">
                            <path d="M0.594,-0.305L0.594,-0L0.498,-0L0.498,-0.294C0.498,-0.346 0.486,-0.385 0.461,-0.411C0.436,-0.436 0.401,-0.449 0.355,-0.449C0.303,-0.449 0.262,-0.434 0.232,-0.404C0.202,-0.373 0.187,-0.33 0.187,-0.273L0.187,-0L0.091,-0L0.091,-0.53L0.183,-0.53L0.183,-0.45C0.202,-0.478 0.229,-0.499 0.262,-0.514C0.295,-0.528 0.332,-0.535 0.374,-0.535C0.442,-0.535 0.496,-0.516 0.535,-0.477C0.574,-0.438 0.594,-0.381 0.594,-0.305Z" style="fill:white;fill-rule:nonzero;"/>
                        </g>
                        <g transform="matrix(212.199,0,0,212.199,2831.31,319)">
                            <path d="M0.114,0.006C0.095,0.006 0.079,-0 0.066,-0.014C0.053,-0.027 0.046,-0.043 0.046,-0.063C0.046,-0.082 0.053,-0.098 0.066,-0.112C0.079,-0.125 0.095,-0.131 0.114,-0.131C0.133,-0.131 0.148,-0.125 0.161,-0.112C0.174,-0.099 0.18,-0.083 0.18,-0.063C0.18,-0.043 0.173,-0.027 0.161,-0.014C0.148,-0 0.132,0.006 0.114,0.006Z" style="fill:white;fill-rule:nonzero;"/>
                        </g>
                        <g transform="matrix(212.199,0,0,212.199,2879.48,319)">
                            <path d="M0.707,-0.7L0.707,-0L0.625,-0L0.209,-0.517L0.205,-0.517L0.205,-0L0.105,-0L0.105,-0.7L0.187,-0.7L0.603,-0.183L0.607,-0.183L0.607,-0.7L0.707,-0.7Z" style="fill:white;fill-rule:nonzero;"/>
                        </g>
                        <g transform="matrix(212.199,0,0,212.199,3051.78,319)">
                            <path d="M0.613,-0.087L0.613,-0L0.105,-0L0.105,-0.7L0.599,-0.7L0.599,-0.613L0.205,-0.613L0.205,-0.398L0.556,-0.398L0.556,-0.313L0.205,-0.313L0.205,-0.087L0.613,-0.087Z" style="fill:white;fill-rule:nonzero;"/>
                        </g>
                        <g transform="matrix(212.199,0,0,212.199,3193.96,319)">
                            <path d="M0.244,-0.613L0.004,-0.613L0.004,-0.7L0.583,-0.7L0.583,-0.613L0.343,-0.613L0.343,-0L0.244,-0L0.244,-0.613Z" style="fill:white;fill-rule:nonzero;"/>
                        </g>
                    </g>
                </g>
                <g transform="matrix(0.170428,0,0,0.170428,139.878,71.902)">
                    <path d="M1797.48,235.509C1798.72,235.509 1799.87,236.114 1800.58,237.128C1801.28,238.142 1801.45,239.437 1801.02,240.595C1797.59,249.399 1792.16,257.209 1785.29,263.447L1798.87,286.966C1818.84,281.699 1841.01,286.89 1856.66,302.538C1880.08,325.954 1880.08,363.975 1856.66,387.391C1833.25,410.807 1795.22,410.807 1771.81,387.391C1748.84,364.418 1748.4,327.386 1770.51,303.882L1755.6,278.065C1752.16,278.679 1748.62,279 1745,279C1711.88,279 1685,252.115 1685,219C1685,185.885 1711.88,159 1745,159C1770.5,159 1792.31,174.945 1800.99,197.402C1801.42,198.554 1801.26,199.845 1800.56,200.856C1799.86,201.867 1798.7,202.47 1797.48,202.47C1789.77,202.491 1775.72,202.491 1770.66,202.491C1769.49,202.49 1768.4,201.955 1767.68,201.039C1762.39,194.346 1754.19,190.054 1745,190.054C1729.02,190.054 1716.05,203.024 1716.05,219C1716.05,234.976 1729.02,247.946 1745,247.946C1754.19,247.946 1762.39,243.654 1767.69,236.966C1768.4,236.053 1769.5,235.52 1770.66,235.52C1775.72,235.509 1789.78,235.509 1797.48,235.509ZM1841.87,202.491C1840.63,202.491 1839.47,201.884 1838.77,200.868C1838.06,199.851 1837.9,198.553 1838.34,197.395C1847.03,174.945 1868.84,159 1894.34,159C1927.46,159 1954.34,185.885 1954.34,219C1954.34,252.115 1927.46,279 1894.34,279C1868.84,279 1847.03,263.055 1838.36,240.598C1837.92,239.446 1838.08,238.155 1838.79,237.144C1839.49,236.133 1840.64,235.53 1841.87,235.53C1849.57,235.509 1863.62,235.509 1868.69,235.509C1869.85,235.51 1870.95,236.045 1871.66,236.961C1876.96,243.654 1885.15,247.946 1894.34,247.946C1910.32,247.946 1923.29,234.976 1923.29,219C1923.29,203.024 1910.32,190.054 1894.34,190.054C1885.15,190.054 1876.96,194.346 1871.65,201.034C1870.94,201.947 1869.85,202.48 1868.69,202.48C1863.62,202.491 1849.57,202.491 1841.87,202.491ZM1834.7,324.496C1823.41,313.2 1805.06,313.2 1793.77,324.496C1782.47,335.793 1782.47,354.136 1793.77,365.432C1805.06,376.729 1823.41,376.729 1834.7,365.432C1846,354.136 1846,335.793 1834.7,324.496Z" style="fill:white;"/>
                </g>
            </g>
        </g>
    </g>
</svg>
